<svg id="eVshtxFWfLb1" xmlns="http://www.w3.org/2000/svg" xmlns:xlink="http://www.w3.org/1999/xlink" viewBox="0 0 500 500" shape-rendering="geometricPrecision" text-rendering="geometricPrecision">
<style><![CDATA[
#eVshtxFWfLb2 {animation: eVshtxFWfLb2_c_o 5000ms linear infinite normal forwards}@keyframes eVshtxFWfLb2_c_o { 0% {opacity: 1} 20% {opacity: 1} 40% {opacity: 0} 60% {opacity: 1} 80% {opacity: 0} 100% {opacity: 1}} #eVshtxFWfLb3 {animation: eVshtxFWfLb3_c_o 5000ms linear infinite normal forwards}@keyframes eVshtxFWfLb3_c_o { 0% {opacity: 1} 10% {opacity: 1} 30% {opacity: 0} 50% {opacity: 1} 70% {opacity: 0} 90% {opacity: 1} 100% {opacity: 1}} #eVshtxFWfLb4 {animation: eVshtxFWfLb4_c_o 5000ms linear infinite normal forwards}@keyframes eVshtxFWfLb4_c_o { 0% {opacity: 1} 20% {opacity: 0} 40% {opacity: 1} 60% {opacity: 0} 80% {opacity: 1} 100% {opacity: 1}}
]]></style>
<path id="eVshtxFWfLb2" d="M246,145.8c12.8-11,25.4-21.7,38-32.5c38.7-33.2,77.5-66.4,116.2-99.7c12-10.3,27-9.8,36.5,1.1c9.4,10.9,7.7,25.9-4.3,36.2-55.9,48.1-111.7,96-167.6,143.8-13.1,11.3-24.4,11.3-37.6,0-56-48-112-96-168-144-11.6-10-13.2-25.1-3.9-35.8c9.3-10.8,24.4-11.4,36-1.5c49.1,42.1,98.3,84.2,147.4,126.3c2.4,1.9,4.7,3.9,7.3,6.1Z" fill="#00a888"/><path id="eVshtxFWfLb3" d="M246.1,290.4c22.4-19.2,44.5-38.1,66.5-57c29.4-25.2,58.8-50.4,88.2-75.6c11.3-9.7,26.5-9,35.6,1.5c9.3,10.6,8.2,25.8-3.1,35.5-57,49-114,97.9-171.1,146.7-10.3,8.8-22.8,8.3-33.6-1-43-36.8-86-73.7-129-110.6-14-12-28.2-23.9-42-36.2-8.7-7.7-10.5-19.6-5.4-29.5c5-9.7,15.7-15.1,26.7-12.6c4.5,1,9,3.6,12.5,6.6c50.4,43,100.7,86.1,151,129.2c1.1.8,2.1,1.7,3.7,3Z" transform="translate(0 0.622696)" fill="#00a888"/><path id="eVshtxFWfLb4" d="M246.1,435c22.4-19.2,44.5-38.1,66.5-57c29.4-25.2,58.8-50.4,88.2-75.6c11.3-9.7,26.5-9,35.6,1.5c9.3,10.6,8.2,25.8-3.1,35.5-57,49-114,97.9-171.1,146.7-10.3,8.8-22.8,8.3-33.6-1-43-36.8-86-73.7-129-110.6-14-12-28.2-23.9-42-36.2-8.7-7.7-10.5-19.6-5.4-29.5c5-9.7,15.7-15.1,26.7-12.6c4.5,1,9,3.6,12.5,6.6c50.4,43,100.7,86.1,151,129.2c1.1.8,2.1,1.7,3.7,3Z" fill="#00a888"/></svg>
