<?xml version="1.0" encoding="utf-8"?>
<!-- Generator: Adobe Illustrator 24.1.1, SVG Export Plug-In . SVG Version: 6.00 Build 0)  -->
<svg version="1.1" id="Camada_1" xmlns="http://www.w3.org/2000/svg" xmlns:xlink="http://www.w3.org/1999/xlink" x="0px" y="0px"
	 viewBox="0 0 1700.6 500" style="enable-background:new 0 0 1700.6 500;" xml:space="preserve">
<style type="text/css">
	.st0{fill:#00A888;}
	.st1{fill:#262626;}
</style>
<g>
	<circle class="st0" cx="233.8" cy="252.2" r="48.9"/>
	<g>
		<g>
			<g>
				<path class="st1" d="M126.2,341.5l44.3-25.6c2.4-1.4,5.5-1.1,7.6,0.8c8.4,7.5,18.2,13.3,29,17c3,1,5,3.8,5,6.9v52.8
					c0,3.7-1.6,7.2-4.5,9.6c-9.2,7.7-15,19.3-15,32.2c0,24.1,20.3,43.5,44.7,42c21.3-1.3,38.5-18.9,39.4-40.2
					c0.6-13.7-5.5-26.1-15.2-34.2c-2.8-2.4-4.5-5.8-4.5-9.5c0-12.5,0-40.3,0-52.3c0-3.3,2.2-6.3,5.3-7.3c10.3-3.5,19.8-9,27.9-16
					c2.7-2.3,6.5-2.7,9.5-1l44.1,25.5c3.1,1.8,5.3,4.9,5.7,8.5c2.8,21.5,21.9,37.9,44.5,36.5c20.9-1.3,38-18.4,39.3-39.3
					c1.5-24.5-17.9-44.8-42-44.8c-4.1,0-8.1,0.6-11.9,1.7c-4.3,1.3-8.9,0.9-12.8-1.4l-43.4-25.1c-3.5-2-5.5-6-4.7-10
					c0.9-4.9,1.3-10,1.3-15.1c0-37.2-23.8-68.8-57-80.4c-3.4-1.2-5.7-4.3-5.7-7.9v-52.1c0-3.6,1.6-7.1,4.4-9.4
					c10.2-8.6,16.3-21.9,14.8-36.6c-2-19.6-17.7-35.4-37.2-37.5c-25.3-2.7-46.7,17.1-46.7,41.8c0,13.3,6.2,25.1,15.8,32.9
					c2.5,2,3.9,5.1,3.9,8.4v52.4c0,3.7-2.4,7-5.9,8.2c-33,11.7-56.6,43.2-56.6,80.2c0,5.4,0.5,10.7,1.5,15.9
					c0.6,3.2-0.8,6.5-3.7,8.2l-46.9,27.1c-2.7,1.5-5.9,2-8.8,1c-4.9-1.7-10.2-2.5-15.8-2.2c-21.1,1.1-38.4,18.3-39.7,39.4
					c-1.7,28.5,25.2,52,54.4,42.9c22.3-6.9,27.9-24.9,29.3-34.4C120.4,347.1,122.7,343.5,126.2,341.5z M276.6,248.9
					c2.6,26.6-19.6,48.8-46.2,46.2c-19.7-2-35.6-17.9-37.6-37.6c-2.6-26.6,19.6-48.8,46.2-46.2C258.7,213.3,274.7,229.2,276.6,248.9
					z"/>
			</g>
			<g>
				<circle class="st1" cx="342.5" cy="138.6" r="28.9"/>
			</g>
			<g>
				<circle class="st1" cx="128.6" cy="139.4" r="28.9"/>
			</g>
			<path d="M229.9,424.5"/>
		</g>
	</g>
	<g>
		<path class="st1" d="M481.5,322.3V197.4h30.6c0,0,0.5,21,0.5,21.2c7.3-11.7,22.6-23.7,42.4-23.7c20.8,0,34.6,9.2,40.9,27.7
			c8.8-16.2,25.8-27.7,45.2-27.7c29.6,0,45.2,19,45.2,56.7v70.7h-32.6v-64.4c0-23.2-8.3-32-24.8-32c-17.3,0-28.6,13.2-28.6,32v64.4
			h-32.6v-64.4c0-23.2-8.3-32-24.8-32c-17.3,0-28.6,13.2-28.6,32v64.4H481.5z"/>
		<path class="st1" d="M765.7,194.9c36.1,0,64.5,29,64.5,64.9c0,36-28.3,64.9-64.5,64.9c-36.1,0-64.5-29-64.5-64.9
			C701.2,223.9,729.6,194.9,765.7,194.9z M765.7,295.3c19.3,0,33.9-15.5,33.9-35.5c0-20-14.5-35.5-33.9-35.5
			c-19.3,0-33.9,15.5-33.9,35.5C731.8,279.8,746.4,295.3,765.7,295.3z"/>
		<path class="st1" d="M846.4,197.4h30.6c0,0,0.5,21,0.5,21.2c7.8-12,23.6-23.7,43.9-23.7c29.6,0,45.2,18.7,45.2,56.7v70.7H934
			v-64.4c0-23.2-9.8-32-26.3-32c-17.3,0-28.6,13.2-28.6,32v64.4h-32.6V197.4z"/>
		<path class="st1" d="M1012.2,269.1c2.8,15.5,17.8,28.2,41.4,28.2c16.8,0,26.3-2.2,37.6-5.2l7.3,25.7c-14,4-26.3,7-48.9,7
			c-40.4,0-68.2-29.5-68.2-64.9c0-33.7,24.3-64.9,61.5-64.9c39.1,0,64.5,31.5,58.9,74.2H1012.2z M1075,247.6
			c-2-15.7-13-27.7-31.9-27.7c-17.3,0-30.4,11-32.1,27.7H1075z"/>
		<path class="st1" d="M1136.4,197.4l31.9,87.7l27.1-87.7h32.9l-45.2,124.1c-14.5,39-23.1,50.7-52.4,50.7c-5.5,0-11.5-0.3-18.6-1
			c0,0,2.5-26,2.8-25.7c5.3,0.5,9.8,1,13.5,1c12.3,0,17.8-4.7,25.1-25.5l-49.9-123.6H1136.4z"/>
		<path class="st0" d="M1232.2,135h49.7v74.9c8.8-8,23.1-15,38.4-15c28.3,0,42.4,18.7,42.4,54.4v72.9H1313v-62.4
			c0-13.7-6.5-18-15.6-18s-15.6,4.2-15.6,18v62.4h-49.7V135z"/>
		<path class="st0" d="M1373.2,197.4h46.4v62.4c0,13.7,6.5,18,15.6,18s15.6-4.2,15.6-18v-62.4h49.7v124.9H1454l-0.8-15
			c-9.3,10.2-25.6,17.5-40.9,17.5c-28.3,0-39.1-18.7-39.1-54.4V197.4z"/>
		<path class="st0" d="M1512.9,322.3V135h49.7c0,0.2,0,72.9,0,72.9c8.3-7.5,18.6-13,33.9-13c31.9,0,52.4,29.7,52.4,64.9
			c0,35.7-20.6,64.9-52.4,64.9c-15.1,0-28.8-6.7-36.4-15l-0.8,12.5H1512.9z M1578.4,280.3c10.5,0,19.1-8.5,19.1-20.5
			c0-12-8.5-20.5-19.1-20.5s-19.1,8.5-19.1,20.5C1559.3,271.8,1567.8,280.3,1578.4,280.3z"/>
	</g>
</g>
</svg>
