<?xml version="1.0" encoding="utf-8"?>
<!-- Generator: Adobe Illustrator 24.1.1, SVG Export Plug-In . SVG Version: 6.00 Build 0)  -->
<svg version="1.1" id="Layer_1" xmlns="http://www.w3.org/2000/svg" xmlns:xlink="http://www.w3.org/1999/xlink" x="0px" y="0px"
	 viewBox="0 0 200 200.1" style="enable-background:new 0 0 200 200.1;" xml:space="preserve">
<style type="text/css">
	.st0{fill:#00A888;}
</style>
<path class="st0" d="M65.6,45.7c0.3,0.5,0.7,1,0.7,1.6c0.1,1.9,0,3.8,0,5.8c-2.6,0-5.2,0-7.9,0c0-2.1,0-4.3,0-6.4
	c0-0.3,0.4-0.7,0.6-1C61.2,45.7,63.4,45.7,65.6,45.7z"/>
<path class="st0" d="M58.5,128.5c0-23.2,0-46.2,0-69.4c0.4,0,0.7,0,1.1,0c26.8,0,53.6,0,80.4,0c2.9,0,4.3,1.4,4.3,4.3
	c0.1,20.2,0.1,40.5,0.2,60.7c0,3-1.4,4.4-4.4,4.4c-26.8,0-53.6,0-80.4,0C59.3,128.5,58.9,128.5,58.5,128.5z M101.3,121.3
	c0.8-0.4,1.6-0.7,2.2-1.1c10.6-8,21.2-15.9,31.8-23.9c2.2-1.6,2.1-3.8,0-5.4c-10.6-7.8-21.2-15.6-31.8-23.4c-1.6-1.2-2.7-1.2-4.3,0
	c-10.7,7.8-21.3,15.7-32,23.6c-2,1.5-2,3.7,0,5.2c1.5,1.1,3,2.2,4.4,3.3c9.1,6.8,18.2,13.7,27.3,20.5
	C99.6,120.5,100.5,120.8,101.3,121.3z"/>
<path class="st0" d="M58.4,134.5c2.7,0,5.2,0,7.8,0c0,0.3,0.1,0.5,0.1,0.8c0,3.4,0,6.9,0,10.3c0,1.2-0.4,1.6-1.6,1.6
	c-1.6,0-3.3,0-4.9,0c-0.9,0-1.4-0.4-1.4-1.3C58.4,142.1,58.4,138.4,58.4,134.5z"/>
<path class="st0" d="M73.7,93.6C83,86.7,92.1,80,101.3,73.2c9.2,6.8,18.4,13.5,27.6,20.4c-9.2,6.9-18.4,13.8-27.6,20.8
	C92.1,107.5,83,100.6,73.7,93.6z M101.3,103c5.1,0,9.3-4.1,9.3-9.1c0-5.1-4.1-9.3-9.2-9.3c-5.1,0-9.2,4.1-9.2,9.2
	C92.1,98.8,96.2,103,101.3,103z"/>
<path class="st0" d="M104.6,93.8c0,1.8-1.5,3.3-3.3,3.3c-1.8,0-3.3-1.4-3.3-3.3c0-1.8,1.5-3.3,3.3-3.3
	C103.1,90.5,104.6,92,104.6,93.8z"/>
</svg>
