<?xml version="1.0" encoding="utf-8"?>
<!-- Generator: Adobe Illustrator 24.1.1, SVG Export Plug-In . SVG Version: 6.00 Build 0)  -->
<svg version="1.1" id="Layer_1" xmlns="http://www.w3.org/2000/svg" xmlns:xlink="http://www.w3.org/1999/xlink" x="0px" y="0px"
	 viewBox="0 0 200 200.1" style="enable-background:new 0 0 200 200.1;" xml:space="preserve">
<style type="text/css">
	.st0{fill:#00A888;}
</style>
<path class="st0" d="M53.1,112.6c0.2-1.7,0.5-3.3,0.7-5c0.7-5.5,1.4-11,2.1-16.4c0.4-2.9,2.8-5.1,5.7-5.2c0.1,0,0.1,0,0.2,0
	c5.5,0,4.1-0.6,7.9,3.2c0.5,0.5,1,1.1,1.6,1.8c1-1.1,2-1.9,2.8-3c1.3-1.6,3-2.3,5-2.1c0.8,0.1,1.7,0,2.6,0c-2.2,5.4-2,11-2.9,16.4
	c-0.5,3.2-0.8,6.5-1.3,9.8c-0.5,3.9,1.2,7.4,4.6,9.3c0.3,0.2,0.6,0.6,0.6,0.9c-0.6,6.5-1.3,13-2,19.5c-0.4,3.2-2.9,5.3-6.1,5.4
	c-2.2,0-4.5,0-6.7,0c-3.2,0-5.7-2.3-6-5.4c-0.7-6.1-1.3-12.2-1.9-18.3c-0.2-2.3-0.5-4.6-0.7-7c-0.8,0-1.6-0.1-2.4,0
	c-1.9,0.2-3.2-0.6-4-2.3C53.1,113.7,53.1,113.2,53.1,112.6z"/>
<path class="st0" d="M103.7,55.2c1.4,0.4,2.8,0.7,4,1.4c5.2,2.6,7.8,8.6,6.3,14.2c-1.5,5.6-6.8,9.3-12.6,9
	c-5.7-0.3-10.5-4.7-11.4-10.4c-1-6.6,3.4-12.8,10.1-13.9c0.2,0,0.4-0.1,0.5-0.2C101.7,55.2,102.7,55.2,103.7,55.2z"/>
<path class="st0" d="M134.4,55.2c1.4,0.4,2.8,0.7,4,1.4c5.2,2.6,7.8,8.6,6.3,14.2c-1.5,5.6-6.8,9.3-12.6,9
	c-5.7-0.3-10.5-4.7-11.4-10.4c-1-6.6,3.4-12.8,10-13.9c0.2,0,0.4-0.1,0.6-0.2C132.4,55.2,133.4,55.2,134.4,55.2z"/>
<path class="st0" d="M73,55.2c1.7,0.6,3.4,1,4.9,1.9c4.9,2.9,7,8.9,5.2,14.2c-1.8,5.3-7.1,8.9-12.7,8.4c-5.7-0.5-10.2-4.8-11.1-10.4
	c-1-6.6,3.4-12.8,10.1-13.9c0.2,0,0.4-0.1,0.5-0.2C71,55.2,72,55.2,73,55.2z"/>
<path class="st0" d="M90.1,116.6c-1,0-2,0-3.1,0c-2.1,0-3.5-1.5-3.2-3.6c0.9-7.3,1.9-14.6,2.8-21.9c0.4-2.9,2.8-5.1,5.8-5.2
	c1.2,0,2.4-0.1,3.6,0c0.8,0.1,1.7,0.5,2.3,1.1c1.3,1.1,2.5,2.5,3.8,3.8c1.3-1.3,2.5-2.5,3.7-3.7c0.8-0.8,1.7-1.2,2.8-1.2
	c1.4,0.1,2.9,0,4.3,0.2c2.5,0.4,4.4,2.5,4.7,5c1,7.3,1.9,14.6,2.8,21.9c0.3,2-1.1,3.6-3.1,3.6c-1,0-2,0-3.2,0
	c-0.1,1.2-0.2,2.3-0.3,3.4c-0.7,9-1.5,18-2.2,26.9c-0.3,4.3-2.7,6.5-7,6.5c-2,0-3.9,0-5.8,0c-3.3,0-5.8-2.2-6.2-5.5
	c-0.5-5.2-0.9-10.4-1.3-15.6c-0.4-5-0.8-9.9-1.2-14.9C90.2,117.2,90.2,116.9,90.1,116.6z"/>
<path class="st0" d="M144.9,116.6c-0.3,3.1-0.6,6-0.9,9c-0.6,5.5-1.1,10.9-1.7,16.4c-0.4,3.1-2.9,5.3-6,5.3c-2.3,0-4.6,0-6.9,0
	c-3.1,0-5.6-2.3-6-5.4c-0.7-6.5-1.4-13-2-19.5c0-0.2,0.1-0.6,0.3-0.7c4.3-2.3,5.5-6.1,4.8-10.7c-0.9-6.7-1.7-13.4-2.7-20.1
	c-0.2-1.6-0.8-3.1-1.3-4.8c0.3,0,0.8-0.1,1.3-0.1c4.7,0,3.7-0.4,7.1,2.9c0.6,0.6,1.2,1.3,1.9,2.1c1.3-1.3,2.5-2.5,3.6-3.7
	c0.8-0.9,1.8-1.3,3.1-1.3c1.4,0.1,2.8,0,4.2,0.2c2.5,0.4,4.3,2.5,4.7,5c1,7.3,1.9,14.6,2.8,21.9c0.3,2-1.1,3.5-3.2,3.6
	C147.1,116.6,146,116.6,144.9,116.6z"/>
</svg>
