<?xml version="1.0" encoding="utf-8"?>
<!-- Generator: Adobe Illustrator 24.1.1, SVG Export Plug-In . SVG Version: 6.00 Build 0)  -->
<svg version="1.1" id="Layer_1" xmlns="http://www.w3.org/2000/svg" xmlns:xlink="http://www.w3.org/1999/xlink" x="0px" y="0px"
	 viewBox="0 0 200 200.1" style="enable-background:new 0 0 200 200.1;" xml:space="preserve">
<style type="text/css">
	.st0{fill:#00A888;}
	.st1{fill:#FFFFFF;}
</style>
<rect class="st0" width="200" height="200"/>
<path class="st1" d="M63.9,50.8c12.2,0,24.3,0,36.5,0c0,0.3-0.1,0.5-0.1,0.8c0,7.4,0,14.8,0,22.2c0,2.2,1.1,3.3,3.3,3.3
	c7.3,0,14.5,0,21.9,0c0.4,0,0.6,0,1.1,0c0,3.4,0,6.7,0,10.1c-0.2,0-0.4,0-0.5,0c-8.8-0.5-16.5,2.1-23.1,7.8
	c-0.4,0.3-0.9,0.5-1.3,0.5c-5.2,0-10.3,0-15.6,0c-3.1,0-6.3,0-9.4,0c-1.9,0-3.2,1.7-2.7,3.6c0.4,1.3,1.5,2,2.9,2
	c6.6,0,13.1,0,19.7,0c0.3,0,0.6,0,1.1,0c-4.9,7.5-6.7,15.5-5,24.1c1.6,8.6,6.1,15.4,13.4,20.7c-0.5,0-0.9,0-1.3,0
	c-13.1,0-26.2,0-39.2,0c-2.7,0-3.6-0.9-3.6-3.6c0-29.3,0-58.5,0-87.8C61.7,52.7,62.3,51.5,63.9,50.8z M86.9,83.7
	c-3.4,0-6.8,0-10.1,0c-1.9,0-3.1,1.1-3.1,2.7c0,1.6,1.3,2.7,3.1,2.7c6.7,0,13.4,0,20,0c1.9,0,3.1-1.1,3.1-2.7c0-1.6-1.3-2.7-3.1-2.7
	C93.5,83.7,90.2,83.7,86.9,83.7z M79.3,133.7c1,0,2,0,2.9,0c1.6,0,2.7-1.2,2.8-2.7c0-1.6-1.2-2.7-2.8-2.8c-1.9,0-3.9,0-5.9,0
	c-1.6,0-2.7,1.2-2.8,2.7c0,1.6,1.2,2.7,2.8,2.8C77.4,133.7,78.4,133.7,79.3,133.7z"/>
<path class="st1" d="M150.6,119.2c-0.1,14.8-12.1,26.7-26.8,26.6c-14.7-0.1-26.6-12.2-26.5-26.8c0.1-14.8,12.1-26.7,26.8-26.6
	C138.8,92.4,150.7,104.5,150.6,119.2z M130.6,110.1c-0.2-0.4-0.5-1.2-1.1-1.6c-0.6-0.5-1.5-0.8-2.2-1.4c-0.3-0.2-0.6-0.5-0.7-0.8
	c-0.4-1.5-1.5-2.5-2.8-2.4c-1.4,0.1-2.4,1.1-2.7,2.6c-0.1,0.4-0.3,0.7-0.6,0.9c-2.6,1.4-3.8,3.5-4,6.3c-0.1,2.8,1.3,4.8,3.8,6
	c1.6,0.8,3.2,1.4,4.8,2.1c1.5,0.6,1.8,1.8,1,3.1c-0.5,0.9-1.4,1.3-2.4,1.3c-1.3,0-2.5-0.3-3.6-0.9c-1.4-0.8-3-0.5-3.8,0.8
	c-0.8,1.4-0.5,3,1,3.8c1,0.5,2,1,3.1,1.5c0.5,0.2,0.6,0.4,0.7,0.8c0.3,1.5,1.4,2.5,2.8,2.4c1.4-0.1,2.5-1.1,2.7-2.6
	c0.1-0.6,0.3-0.9,0.8-1.2c3.2-1.6,4.8-4.2,4.7-7.7c-0.1-3.5-2.1-5.7-5.3-6.9c-1.4-0.5-2.7-1.1-3.9-1.6c-0.5-0.2-0.9-0.5-0.7-1.2
	c0.1-0.6,0.5-1.1,1.1-1.3c1.1-0.3,2.1-0.1,3,0.6c0.9,0.6,1.9,0.7,2.9,0.2C130.2,112.5,130.6,111.7,130.6,110.1z"/>
<path class="st1" d="M124.6,71.6c-6.1,0-12.3,0-18.7,0c0-6.3,0-12.5,0-18.7C112.1,59.1,118.4,65.4,124.6,71.6z"/>
</svg>
