<?xml version="1.0" encoding="utf-8"?>
<!-- Generator: Adobe Illustrator 24.1.1, SVG Export Plug-In . SVG Version: 6.00 Build 0)  -->
<svg version="1.1" id="Layer_1" xmlns="http://www.w3.org/2000/svg" xmlns:xlink="http://www.w3.org/1999/xlink" x="0px" y="0px"
	 viewBox="0 0 200 200.1" style="enable-background:new 0 0 200 200.1;" xml:space="preserve">
<style type="text/css">
	.st0{fill:#00A888;}
</style>
<path class="st0" d="M96.5,48.7c2,0.4,3.8,1.1,5.3,2.5c3,2.8,4.1,6.2,3.1,10.1c-1,3.9-3.6,6.3-7.6,7.2c-0.3,0.1-0.6,0.1-0.9,0.2
	c0,0,0,0-0.1,0.1c7.1,1.3,9.7,6.6,8.8,14.2c-2,0-4,0-6,0c-1.2,0-2.1,0.4-2.7,1.5c-1.2,2,0.2,4.4,2.7,4.4c2.2,0,4.4,0,6.6,0
	c3.1,0,6.3,0,9.4,0c4,0,6.9,2.9,6.9,6.7c0,3.8-3,6.6-6.9,6.6c-7.7,0-15.3,0-23,0c-3.8,0-6.7-2.6-6.8-6.5c-0.1-5.7-0.2-11.5,0-17.2
	c0.2-5.2,3.3-8.4,9-9.7c-2.5-0.4-4.7-1.4-6.3-3.2c-2.6-2.9-3.4-6.2-2.2-9.9c1.2-3.7,3.8-6,7.7-6.8c0.2,0,0.4-0.1,0.5-0.2
	C94.8,48.7,95.7,48.7,96.5,48.7z"/>
<path class="st0" d="M80.1,100.3c0.8,1.2,1.5,2.5,2.5,3.6c2.4,2.7,5.5,4.2,9.1,4.2c8,0,15.9,0,23.9,0c0.2,0,0.5,0,0.7,0
	c1.3-0.5,1.9,0.3,2.4,1.3c9.1,16.4-1.4,37.1-19.9,39.5c-15.3,1.9-28.8-8.8-30.1-24.2c-0.9-10,3.1-18.1,11.1-24.1
	C79.9,100.4,80.1,100.3,80.1,100.3z"/>
<path class="st0" d="M123.4,105.6c3.1,0,5.9,0.9,8.3,2.7c2.3,1.7,3.8,3.9,4.7,6.6c2.6,7.7,5.1,15.5,7.7,23.2
	c0.8,2.5-0.5,4.3-3.1,4.3c-3.2,0-6.4,0-9.6,0c-1.8,0-2.8-0.7-3.4-2.4c-0.6-1.8-1.3-3.6-1.8-5.5c-0.1-0.4-0.2-0.9,0-1.3
	c3.1-9.4,2.4-18.4-2.4-27C123.6,106,123.5,105.9,123.4,105.6z"/>
<path class="st0" d="M79.4,90.5c-1.3-4-3.8-6.6-7.9-7.4C70.9,83,70.3,83,69.8,83c-1.8-0.2-3.1-1.5-3-3.1c0.1-1.7,1.4-2.8,3.3-2.8
	c3.2,0,6.1,1,8.7,2.9c0.2,0.2,0.5,0.5,0.5,0.7C79.4,84,79.4,87.3,79.4,90.5z"/>
</svg>
