<?xml version="1.0" encoding="utf-8"?>
<!-- Generator: Adobe Illustrator 24.1.1, SVG Export Plug-In . SVG Version: 6.00 Build 0)  -->
<svg version="1.1" id="Layer_1" xmlns="http://www.w3.org/2000/svg" xmlns:xlink="http://www.w3.org/1999/xlink" x="0px" y="0px"
	 viewBox="0 0 200 200.1" style="enable-background:new 0 0 200 200.1;" xml:space="preserve">
<style type="text/css">
	.st0{fill:#00A888;}
</style>
<path class="st0" d="M113.3,50.4c0.6,0.1,1.2,0.3,1.8,0.4c6.3,1.7,10.2,8,9.1,14.6c-1.1,6.2-7,10.7-13.4,10.3
	c-6.3-0.5-11.4-5.7-11.7-12c-0.3-6.3,4.2-12,10.4-13.1c0.2,0,0.4-0.1,0.6-0.2C111.2,50.4,112.2,50.4,113.3,50.4z"/>
<path class="st0" d="M107.5,104.2c-1.5,1.1-2.7,2-4,3c-1.6,1.2-3.3,2.5-4.9,3.7c-1.6,1.2-3.3,1.9-5.3,2.3c0,0.1,0,0.3,0,0.3
	c2.3,3.3,2.9,7,3.3,10.8c0.7,7.4,1.5,14.8,2.3,22.2c0.3,2.7-1.2,4.8-3.6,5.1c-2.4,0.3-4.5-1.4-4.8-4c-0.2-1.5-0.3-3-0.5-4.5
	c-0.1-1.3-0.3-2.6-0.4-4c-7.8,0-15.6,0-23.5,0c-0.3,2.4-0.5,4.8-0.8,7.1c-0.1,0.6-0.1,1.2-0.2,1.9c-0.3,2.1-2.2,3.7-4.4,3.6
	c-2.2-0.1-4-1.9-3.9-4.2c0.1-2.4,0.4-4.8,0.7-7.2c0.6-6,1.3-11.9,1.9-17.9c1-9.7,8-16.5,17.8-17.2c0.2,0,0.5,0,0.7-0.1
	c0.1-0.2,0.1-0.4,0.2-0.5c0.6-2.5,2.1-4.3,4.4-5.4c3.6-1.8,7.2-3.6,10.8-5.4c1.2-0.6,2.2-1.5,3-2.6c1.5-2.1,2.9-4.2,4.6-6
	c3.1-3.1,7-4.9,11.5-5.2c2.5-0.2,5-0.2,7.5,0c2.7,0.1,5.1,1.3,7,3.3c3.8,3.8,6.1,8.5,7.5,13.6c2,7.2,2.7,14.6,2.6,22.1
	c-0.1,4.5-1.6,8.6-4.2,12.4c-2,2.8-3.4,5.8-3.7,9.2c-0.1,1.4-0.1,2.8-0.1,4.1c0,1.3,0,2.6,0,3.9c-0.1,1.7-1.4,3.1-3.1,3.1
	c-4.7,0-9.5,0-14.2,0c-2.2,0-3.9-1.8-4-4c0-0.4,0-0.8,0-1.2c0-13.6,0-27.2,0-40.8C107.5,105.3,107.5,104.9,107.5,104.2z M88.8,130.5
	c-0.3-2.7-0.6-5.3-0.8-7.9c-0.5-4.8-4.4-8.5-9.2-8.9c-4.9-0.4-9.5,2.8-10.6,7.5c-0.5,2.1-0.6,4.2-0.8,6.4c-0.1,1-0.2,1.9-0.3,2.9
	C74.4,130.5,81.6,130.5,88.8,130.5z"/>
</svg>
