<?xml version="1.0" encoding="utf-8"?>
<!-- Generator: Adobe Illustrator 24.1.1, SVG Export Plug-In . SVG Version: 6.00 Build 0)  -->
<svg version="1.1" id="Layer_1" xmlns="http://www.w3.org/2000/svg" xmlns:xlink="http://www.w3.org/1999/xlink" x="0px" y="0px"
	 viewBox="0 0 200 200.1" style="enable-background:new 0 0 200 200.1;" xml:space="preserve">
<style type="text/css">
	.st0{fill:#00A888;}
	.st1{fill:#FFFFFF;}
</style>
<rect class="st0" width="200" height="200"/>
<path class="st1" d="M155,103.9c-0.5,2.6-2.2,4.2-4.3,5.6c-10.2,6.8-20.4,13.6-30.6,20.4c-2.9,1.9-6.1,3.5-9.1,5.2
	c-3.5,2.1-7.1,2.5-11.1,1.6c-9.4-2-18.9-3.7-28.4-5.7c-0.7-0.2-1,0-1.3,0.6c-1.9,3.7-4.9,5.9-9.3,5.8c-2.9-0.1-5.9,0-8.9,0
	c0-15.3,0-30.5,0-45.8c3,0,6,0,8.9,0c0.7,0,1.6,0,2.3,0.2c3.5,0.7,5.7,2.9,7.2,6c0.2,0.5,0.4,0.9,0.6,1.6c1.1-0.2,2.2-0.4,3.3-0.5
	c1.6-0.3,3.3-0.5,4.8-0.6c2.8-0.3,5.5,0.8,8.1,1.6c7.1,2.4,14.3,4.7,21.5,7.2c1,0.4,2,0.8,2.9,1.5c1.9,1.3,2.6,3.1,1.8,5.1
	c-0.7,2-2.6,3.4-4.7,3.3c-2.8-0.2-5.6-0.5-8.4-0.9c-4.5-0.5-8.9-1.1-13.3-1.7c-0.3,0-0.5-0.1-1-0.1c-0.3,1.8-0.5,3.7-0.7,5.6
	c1.7,0.3,3.4,0.5,5,0.6c5.3,0.6,10.7,1.3,16,2c4,0.5,7.6-0.2,10.4-3.2c4.2-4.5,3.7-11.3-1.2-15c-1.6-1.2-3.6-1.9-5.4-2.8
	c-0.4-0.2-0.7-0.3-1.3-0.5c0.5-0.3,0.7-0.5,1-0.6c3.1-1.9,6.1-3.7,9.2-5.6c3.7-2.3,7.5-1.5,10,2.2c0.1,0.1,0.1,0.2,0.3,0.3
	c1.1-0.6,2.2-1.2,3.2-1.8c3.8-2.2,7.6-1.2,9.9,2.6c0.1,0.1,0.1,0.2,0.3,0.3c0.6-0.4,1.3-0.7,1.8-1.1c4.1-2.5,9.1-0.5,10.3,4.2
	c0,0.2,0.1,0.3,0.2,0.5C155,102.4,155,103.1,155,103.9z"/>
<path class="st1" d="M100.8,92.6c0-1,0-2,0-3c-2.7-0.6-5.1-1.8-6.6-4.3c-0.7-1.3-1.2-2.6-1.1-4.3c1.9,0,3.7,0,5.6,0
	c0.3,2.1,1.8,2.8,3.7,2.9c1.4,0.1,2.7-0.1,4.1-0.4c1.2-0.2,1.9-1,2-2.3c0.1-1.4-0.3-2.4-1.6-2.8c-1.6-0.6-3.2-1.1-4.8-1.6
	c-1.3-0.4-2.6-0.6-3.7-1.2c-3.7-1.6-5.4-4.1-5.3-7.9c0.1-3.4,2.5-6.5,5.8-7.7c0.5-0.2,1.2-0.4,1.8-0.5c0-0.9,0-1.9,0-2.9
	c1.9,0,3.7,0,5.8,0c0,0.7,0,1.4,0,2.1c-0.1,0.7,0.2,1,0.9,1.2c3.6,1,6,3.1,6.7,6.9c0.1,0.4,0.1,0.8,0.1,1.2c-1.9,0-3.7,0-5.7,0
	c-0.3-2-1.7-2.6-3.5-2.7c-1.5-0.1-2.9,0-4.4,0.2c-0.9,0.2-1.6,0.8-1.8,1.8c-0.4,1.3-0.1,2.2,1.2,2.7c1.5,0.5,3,1,4.6,1.5
	c1.3,0.4,2.6,0.7,3.9,1.3c3.9,1.6,5.9,4.7,5.7,8.9c-0.3,3.7-2.7,6.6-6.8,7.5c-0.8,0.2-1,0.5-1,1.3c0.1,0.6,0,1.4,0,2.1
	C104.6,92.6,102.8,92.6,100.8,92.6z"/>
</svg>
