<?xml version="1.0" encoding="utf-8"?>
<!-- Generator: Adobe Illustrator 24.1.1, SVG Export Plug-In . SVG Version: 6.00 Build 0)  -->
<svg version="1.1" id="Layer_1" xmlns="http://www.w3.org/2000/svg" xmlns:xlink="http://www.w3.org/1999/xlink" x="0px" y="0px"
	 viewBox="0 0 200 200" style="enable-background:new 0 0 200 200;" xml:space="preserve">
<style type="text/css">
	.st0{fill:#00A888;}
</style>
<path class="st0" d="M14.8,90.7c57,0,113.7,0,170.6,0c0,0.7,0.1,1.3,0.1,2c0,22,0,44,0,66c0,14.5-10.6,25.1-25,25.1
	c-40.2,0-80.5,0-120.7,0c-14.4,0-25-10.6-25-25.1c0-22,0-44,0-66C14.8,92.1,14.8,91.5,14.8,90.7z M92.5,138.6
	c-3.5-3.6-6.7-6.8-9.9-10c-1.5-1.5-3.2-2.4-5.3-2.5c-3.2-0.2-6.1,1.6-7.5,4.5c-1.4,3-0.8,6.3,1.6,8.7c5,5,10,10,15,15
	c3.7,3.7,8.2,3.7,11.9,0c10-10,20.1-20,30.1-30.1c3.4-3.4,3.6-8.1,0.5-11.3c-3.2-3.2-8-3-11.5,0.4c-7.8,7.8-15.6,15.6-23.4,23.4
	C93.5,137.2,93.1,137.8,92.5,138.6z"/>
<path class="st0" d="M185.3,75C128.5,75,71.8,75,15,75c-0.1-0.2-0.2-0.3-0.2-0.5c0-8.2-0.3-16.4,0.3-24.5
	c0.8-11.8,11.3-21.2,23.2-21.5c5-0.1,10,0,15.3,0c0-2.7,0-5.2,0-7.8c0.1-5.1,4.7-8.6,9.6-7.5c3.5,0.8,5.8,3.8,5.9,7.7
	c0.1,2.4,0,4.8,0,7.4c7.7,0,15.4,0,23.3,0c0-2.7-0.1-5.3,0-8c0.1-3.9,3-6.9,7-7.4c3.6-0.4,7.2,2,8.1,5.6c0.3,1.3,0.3,2.6,0.3,4
	c0,1.9,0,3.8,0,5.9c7.8,0,15.4,0,23.3,0c0-2.6-0.1-5.1,0-7.6c0.2-6,6.2-9.7,11.4-6.9c2.7,1.4,4.1,3.7,4.2,6.8c0.1,2.5,0,5.1,0,7.8
	c2.2,0,4.3-0.1,6.4,0c4.4,0.1,8.8-0.2,13,0.6c11.1,2.1,18.9,11.4,19.3,22.9c0.3,7.4,0.1,14.9,0.1,22.4
	C185.5,74.5,185.4,74.7,185.3,75z"/>
</svg>
