<?xml version="1.0" encoding="utf-8"?>
<!-- Generator: Adobe Illustrator 24.1.1, SVG Export Plug-In . SVG Version: 6.00 Build 0)  -->
<svg version="1.1" id="Layer_1" xmlns="http://www.w3.org/2000/svg" xmlns:xlink="http://www.w3.org/1999/xlink" x="0px" y="0px"
	 viewBox="0 0 200 200" style="enable-background:new 0 0 200 200;" xml:space="preserve">
<style type="text/css">
	.st0{fill:#00A888;}
</style>
<path class="st0" d="M54.6,166c-26.4-22.3-36.9-49.8-26.7-82.9c9.7-31.4,32.8-48,65.4-52.5c0-2,0-4.2,0-6.5c0-1,0-2,0-3.1
	c0.1-3.3,2.5-5.7,5.7-5.7c3.2,0,5.7,2.4,5.8,5.7c0.1,3.2,0,6.5,0,9.5c33.1,4.6,56.4,21.8,65.8,54.1c9.5,32.6-1.3,59.7-27.2,81.4
	c2.2,4.4,4.5,8.9,6.7,13.5c1.8,3.8-0.4,7.8-4.4,8.4c-2.4,0.3-4.7-0.9-6-3.4c-1.8-3.6-3.6-7.3-5.5-10.9c-0.3-0.5-0.6-1-0.8-1.5
	c-23,11.1-45.9,11-68.9,0c-2.1,4.1-4.1,8.3-6.2,12.4c-1.3,2.5-3.6,3.8-5.9,3.5c-4.1-0.5-6.3-4.6-4.5-8.3c1.9-4.1,4-8,6-12.1
	C54.1,166.9,54.4,166.4,54.6,166z M104.7,88c0-4.3,0-8.6,0-12.9c0-3.5-2.5-6.1-5.8-6.1c-3.3,0-5.7,2.6-5.7,6.1c0,9.3,0,18.7,0,28
	c0,3.6,1.5,6.3,4.4,8.3c2.2,1.5,4.5,3,6.7,4.5c4.7,3.2,9.4,6.3,14.2,9.5c3.6,2.3,8,0.7,9-3.3c0.6-2.4-0.4-4.7-2.7-6.3
	c-6.3-4.2-12.5-8.4-18.8-12.5c-1-0.6-1.3-1.3-1.3-2.5C104.8,96.5,104.7,92.2,104.7,88z"/>
<path class="st0" d="M131.6,21.1c0-2.2,0.9-3.9,2.9-5c2.1-1.1,4.2-1.1,6.1,0.3c2.6,1.9,5.2,3.9,7.8,5.8c7.5,5.6,15,11.3,22.6,16.9
	c2.1,1.6,3.2,3.6,2.7,6.2c-0.9,4.2-5.6,5.9-9.2,3.3c-4.8-3.5-9.5-7.1-14.2-10.7c-5.3-4-10.6-8-16-12
	C132.6,24.7,131.6,23.2,131.6,21.1z"/>
<path class="st0" d="M66.3,20.1c0,2.9-0.8,4.4-2.3,5.6C53.8,33.3,43.6,41,33.4,48.6c-2.6,2-6.1,1.4-8-1.1c-2-2.6-1.6-6.1,1.2-8.1
	c10.2-7.7,20.4-15.3,30.6-23c1.9-1.4,4-1.6,6.1-0.5C65.3,17,66.3,18.7,66.3,20.1z"/>
</svg>
