<?xml version="1.0" encoding="utf-8"?>
<!-- Generator: Adobe Illustrator 24.1.1, SVG Export Plug-In . SVG Version: 6.00 Build 0)  -->
<svg version="1.1" id="Layer_1" xmlns="http://www.w3.org/2000/svg" xmlns:xlink="http://www.w3.org/1999/xlink" x="0px" y="0px"
	 viewBox="0 0 200 200" style="enable-background:new 0 0 200 200;" xml:space="preserve">
<style type="text/css">
	.st0{fill:#00A888;}
</style>
<path class="st0" d="M98,13.6c1.2,0,2.3,0,3.5,0c4.7,0.8,8.2,3.4,11.4,6.7c2.6,2.7,5.4,5.2,8.1,7.9c1.5,1.4,3.2,2,5.2,1.7
	c4.3-0.6,8.7-1.2,13-1.9c9.5-1.5,17,3.5,18.9,12.9c0.9,4.4,1.6,8.7,2.3,13.1c0.4,2.6,1.5,4.3,3.9,5.5c4,2,7.9,4.1,11.8,6.2
	c8.2,4.5,11,12.9,6.9,21.4c-1.9,4-3.8,8-5.9,12c-1.2,2.3-1.1,4.4,0,6.6c2,3.8,3.8,7.7,5.7,11.5c4.3,8.9,1.6,17.4-7.1,22
	c-3.9,2.1-7.7,4.2-11.6,6.2c-2.1,1.1-3.2,2.7-3.6,4.9c-0.7,4.2-1.5,8.4-2.2,12.6c-1.6,9.7-8.5,15.1-18.3,14
	c-4.4-0.5-8.8-1.2-13.2-1.9c-2.4-0.4-4.4,0.1-6.2,1.9c-3.2,3.2-6.5,6.3-9.7,9.4c-6.8,6.5-15.7,6.5-22.5,0c-3.3-3.2-6.7-6.4-10-9.7
	c-1.5-1.4-3.2-2-5.2-1.7c-4.4,0.6-8.8,1.2-13.2,1.9c-9.5,1.5-16.9-3.5-18.7-12.9c-0.9-4.4-1.6-8.9-2.3-13.3
	c-0.4-2.5-1.5-4.2-3.8-5.4c-3.9-2-7.8-4.1-11.6-6.2c-8.5-4.6-11.3-13.1-7-21.8c1.9-3.8,3.7-7.7,5.7-11.5c1.2-2.4,1.3-4.5,0-6.9
	c-2-3.9-3.9-7.9-5.8-11.8c-4-8.5-1.3-17,6.9-21.4c4-2.1,7.9-4.3,12-6.3c2.2-1.1,3.3-2.7,3.7-5.1c0.7-4.3,1.4-8.5,2.2-12.8
	c1.7-9.6,8.7-14.9,18.4-13.7c4.4,0.5,8.8,1.2,13.2,1.9c2.4,0.4,4.3-0.2,6-1.9c2.6-2.6,5.3-5,7.8-7.6C89.7,16.9,93.3,14.3,98,13.6z
	 M139,68.9c-0.4-3.1-2.7-5.4-5.6-5.4c-1.8,0-3,1-4.2,2.1C107.1,87.8,85,109.9,62.9,132c-0.4,0.4-0.8,0.8-1.2,1.3
	c-1.1,1.7-1.3,3.5-0.4,5.2c0.9,1.8,2.4,2.7,4.5,2.8c2,0.1,3.3-1.1,4.6-2.4c19.5-19.5,39-39,58.5-58.5c2.6-2.6,5.3-5.2,7.8-7.9
	C137.7,71.5,138.2,70.1,139,68.9z M120.4,111c-10.2-0.1-18.8,8.2-19,18.3c-0.1,10.5,8.2,19.1,18.6,19.2c10.2,0.1,18.7-8.3,18.9-18.5
	C139.1,119.6,130.9,111.1,120.4,111z M79.1,93.9c10.3,0,18.8-8.4,18.8-18.7c0-10.3-8.3-18.8-18.6-18.9c-10.3-0.1-18.8,8.3-18.9,18.6
	C60.4,85.4,68.7,93.8,79.1,93.9z"/>
<path class="st0" d="M120.2,138.3c-4.7,0-8.5-3.7-8.5-8.4c-0.1-4.7,3.9-8.7,8.6-8.6c4.6,0.1,8.5,3.9,8.5,8.6
	C128.7,134.5,124.9,138.2,120.2,138.3z"/>
<path class="st0" d="M79.3,66.6c4.7,0,8.5,3.8,8.5,8.5c0,4.6-3.9,8.5-8.5,8.5c-4.7,0-8.7-4-8.6-8.6C70.8,70.3,74.5,66.6,79.3,66.6z"
	/>
</svg>
